<?xml version="1.0" encoding="UTF-8" standalone="no"?>
<!-- Created with Inkscape (http://www.inkscape.org/) -->

<svg
   xmlns:dc="http://purl.org/dc/elements/1.1/"
   xmlns:cc="http://creativecommons.org/ns#"
   xmlns:rdf="http://www.w3.org/1999/02/22-rdf-syntax-ns#"
   xmlns:svg="http://www.w3.org/2000/svg"
   xmlns="http://www.w3.org/2000/svg"
   xmlns:sodipodi="http://sodipodi.sourceforge.net/DTD/sodipodi-0.dtd"
   xmlns:inkscape="http://www.inkscape.org/namespaces/inkscape"
   width="210mm"
   height="297mm"
   viewBox="0 0 744.09448819 1052.3622047"
   id="svg2"
   version="1.1"
   inkscape:version="0.91 r13725"
   sodipodi:docname="windIcons.svg">
  <defs
     id="defs4" />
  <sodipodi:namedview
     id="base"
     pagecolor="#ffffff"
     bordercolor="#666666"
     borderopacity="1.0"
     inkscape:pageopacity="0.0"
     inkscape:pageshadow="2"
     inkscape:zoom="0.5578125"
     inkscape:cx="577.94857"
     inkscape:cy="768.05892"
     inkscape:document-units="px"
     inkscape:current-layer="layer1"
     showgrid="false"
     inkscape:window-width="690"
     inkscape:window-height="405"
     inkscape:window-x="182"
     inkscape:window-y="182"
     inkscape:window-maximized="0" />
  <metadata
     id="metadata7">
    <rdf:RDF>
      <cc:Work
         rdf:about="">
        <dc:format>image/svg+xml</dc:format>
        <dc:type
           rdf:resource="http://purl.org/dc/dcmitype/StillImage" />
        <dc:title></dc:title>
      </cc:Work>
    </rdf:RDF>
  </metadata>
  <g
     inkscape:label="Layer 1"
     inkscape:groupmode="layer"
     id="layer1">
    <rect
       style="fill:#ff0000;fill-opacity:1;stroke:none;stroke-width:7;stroke-linecap:round;stroke-linejoin:round;stroke-miterlimit:4;stroke-dasharray:none;stroke-dashoffset:0;stroke-opacity:1"
       id="rect4883"
       width="318.20728"
       height="609.5238"
       x="85.928368"
       y="-13.572823" />
    <path
       style="fill:none;fill-rule:evenodd;stroke:#000000;stroke-width:7;stroke-linecap:round;stroke-linejoin:round;stroke-opacity:1;stroke-miterlimit:4;stroke-dasharray:none"
       d="m 141.42857,460.93363 212.85714,0 c 0,0 20,0.20158 20,-17.14285 0,-14.52992 -20,-14.28572 -20,-14.28572 -17.18002,0 -15.71428,12.85714 -15.71428,12.85714"
       id="path4136"
       inkscape:connector-curvature="0"
       sodipodi:nodetypes="ccccc" />
    <path
       style="fill:none;fill-rule:evenodd;stroke:#000000;stroke-width:7;stroke-linecap:round;stroke-linejoin:round;stroke-miterlimit:4;stroke-dasharray:none;stroke-opacity:1"
       d="m 165.42857,479.50506 130.28572,0 c 0,0 17.14285,-0.35714 17.14285,10 0,14.66027 -17.14285,12.85714 -17.14285,12.85714"
       id="path4138"
       inkscape:connector-curvature="0"
       sodipodi:nodetypes="cccc" />
    <path
       style="fill:none;fill-rule:evenodd;stroke:#000000;stroke-width:7;stroke-linecap:round;stroke-linejoin:round;stroke-miterlimit:4;stroke-dasharray:none;stroke-opacity:1"
       d="m 147.48227,424.02702 c 0,0 1.01016,37.37564 38.3858,37.37564"
       id="path4728"
       inkscape:connector-curvature="0"
       sodipodi:nodetypes="cc" />
    <path
       style="fill:none;fill-rule:evenodd;stroke:#000000;stroke-width:7;stroke-linecap:round;stroke-linejoin:round;stroke-miterlimit:4;stroke-dasharray:none;stroke-dashoffset:0;stroke-opacity:1"
       d="m 152.28571,495.21935 97,0 c 8.08122,0.25254 14.28572,4.6868 14.28572,14.80094 0.0723,14.08163 -20.48277,12.88017 -20.48277,12.88017 0,0 -16.90519,3.51027 -15.6425,-11.15845 7.32361,-15.23091 15.75018,-0.71157 15.75018,-0.71157"
       id="path4730"
       inkscape:connector-curvature="0"
       sodipodi:nodetypes="cccccc" />
    <path
       style="fill:none;fill-opacity:1;fill-rule:evenodd;stroke:#ffffff;stroke-width:5;stroke-linecap:round;stroke-linejoin:round;stroke-miterlimit:4;stroke-dasharray:none;stroke-opacity:1"
       d="m 545.13044,337.73116 c 1.25539,-1.42128 0.68882,-3.59321 -0.6655,-4.72279 -2.24516,-1.87259 -5.57521,-0.96966 -7.27917,1.1742 -2.7013,3.39867 -1.32327,8.32252 1.9292,10.80344 4.96654,3.78839 12.02691,1.75957 15.5333,-3.00359 5.18645,-7.04535 2.53576,-17.27273 -4.48192,-21.73853 -3.92857,-2.5 -84.84937,0.0254 -84.84937,0.0254"
       id="path4732"
       inkscape:connector-curvature="0"
       sodipodi:nodetypes="csssssc"
       inkscape:export-xdpi="149.62"
       inkscape:export-ydpi="149.62" />
    <path
       style="fill:none;fill-rule:evenodd;stroke:#ffffff;stroke-width:5;stroke-linecap:round;stroke-linejoin:round;stroke-miterlimit:4;stroke-dasharray:none;stroke-opacity:1;fill-opacity:1"
       d="m 589.09825,286.69968 c 0.78329,2.14866 -0.80957,4.33745 -2.82764,5.009 -3.3455,1.11327 -6.68632,-1.36738 -7.6549,-4.52487 -1.53549,-5.00559 2.18065,-9.92643 6.92501,-11.27892 7.24468,-2.06527 14.27745,3.32268 16.11574,10.21479 2.71907,10.19439 -4.57655,22.35915 -14.60802,22.43097 l -130.28838,0.93284"
       id="path4735"
       inkscape:connector-curvature="0"
       sodipodi:nodetypes="csssssc"
       inkscape:export-xdpi="149.62"
       inkscape:export-ydpi="149.62" />
    <path
       style="fill:none;fill-rule:evenodd;stroke:#000000;stroke-width:1px;stroke-linecap:butt;stroke-linejoin:miter;stroke-opacity:1"
       d="m 136.03641,508.31459 c 0,0 -0.0958,21.07143 23.92857,21.07143"
       id="path4738"
       inkscape:connector-curvature="0"
       sodipodi:nodetypes="cc" />
    <path
       style="fill:none;fill-opacity:1;fill-rule:evenodd;stroke:#ffffff;stroke-width:5;stroke-linecap:round;stroke-linejoin:round;stroke-miterlimit:4;stroke-dasharray:none;stroke-opacity:1"
       d="m 568.65892,336.53159 c 1.5191,3.30406 5.74096,4.0713 8.80285,2.58083 4.8767,-2.37386 5.97076,-8.66701 3.6493,-13.216 -3.56838,-6.99235 -19.23346,-7.03066 -19.23346,-7.03066 l -84.34359,0.46341"
       id="path4740"
       inkscape:connector-curvature="0"
       sodipodi:nodetypes="csscc"
       inkscape:export-xdpi="149.62"
       inkscape:export-ydpi="149.62" />
    <path
       style="fill:none;fill-rule:evenodd;stroke:#ffffff;stroke-width:5;stroke-linecap:round;stroke-linejoin:round;stroke-miterlimit:4;stroke-dasharray:none;stroke-opacity:1;fill-opacity:1"
       d="m 553.08695,289.68784 c 1.68174,-1.57608 4.34326,-1.01684 5.78405,0.59019 2.29474,2.55952 3.13642,9.78259 -5.01837,10.62987 -20.92408,-0.64014 -83.03639,-0.0322 -83.03639,-0.0322"
       id="path4743"
       inkscape:connector-curvature="0"
       sodipodi:nodetypes="cscc"
       inkscape:export-xdpi="149.62"
       inkscape:export-ydpi="149.62" />
    <path
       style="fill:none;fill-rule:evenodd;stroke:#ffffff;stroke-width:7;stroke-linecap:round;stroke-linejoin:round;stroke-miterlimit:4;stroke-dasharray:none;stroke-opacity:1;fill-opacity:1"
       d="m 584.43179,391.42329 0,0 c 3e-5,3e-5 -4e-5,7e-5 -6e-5,8e-5 -3.2e-4,1.3e-4 -5.7e-4,-3.5e-4 -6.2e-4,-5.9e-4 -3.3e-4,-0.002 0.002,-0.003 0.003,-0.003 0.005,-3.3e-4 0.008,0.006 0.008,0.0104 -6.2e-4,0.0139 -0.017,0.02 -0.0289,0.0185 -0.0315,-0.004 -0.0441,-0.0409 -0.0389,-0.0682 0.0121,-0.0637 0.0869,-0.0877 0.14328,-0.074 0.11845,0.0287 0.16083,0.1685 0.13051,0.27483 -0.0588,0.206 -0.30387,0.27678 -0.49096,0.21669 -0.33968,-0.10909 -0.45251,-0.51679 -0.34295,-0.82822 0.18861,-0.53607 0.83758,-0.70913 1.33295,-0.52177 0.81547,0.30844 1.07238,1.30391 0.76802,2.06248 -0.48241,1.20235 -1.96176,1.57317 -3.08655,1.09916 -1.72575,-0.72726 -2.24813,-2.8663 -1.53545,-4.48863 1.06297,-2.41972 4.08288,-3.14012 6.36724,-2.10019 3.3238,1.51311 4.29881,5.68795 2.81999,8.83749 -2.10513,4.48342 -7.77007,5.78119 -12.03239,3.72488 -5.95041,-2.8707 -7.65218,-10.43086 -4.84871,-16.10434 3.8461,-7.78344 13.78607,-9.98519 21.22665,-6.22923 10.04853,5.07243 12.86269,17.96652 7.90846,27.59496 -6.59613,12.81944 -17.74108,9.6541 -35.42881,9.93283 -10.01449,0.15781 -105.55289,0.25131 -105.55289,0.25131"
       id="path4748"
       inkscape:connector-curvature="0"
       sodipodi:nodetypes="cccccccccccccssssssssssc"
       inkscape:export-xdpi="149.62"
       inkscape:export-ydpi="149.62" />
    <path
       style="fill:none;fill-opacity:1;fill-rule:evenodd;stroke:#ffffff;stroke-width:6;stroke-linecap:round;stroke-linejoin:round;stroke-miterlimit:4;stroke-dasharray:none;stroke-opacity:1"
       d="m 572.7119,439.65986 0,-10e-6 c -5e-5,-6e-5 -1.7e-4,5e-5 -2e-4,8e-5 -4.5e-4,5.5e-4 3.5e-4,0.001 7.7e-4,0.002 0.003,0.002 0.006,-0.002 0.007,-0.004 0.004,-0.0101 -0.007,-0.0189 -0.0157,-0.0211 -0.0276,-0.007 -0.0492,0.0215 -0.0532,0.0454 -0.0109,0.0639 0.0538,0.11043 0.11037,0.11642 0.13174,0.0139 0.22276,-0.11803 0.22936,-0.23634 0.0139,-0.24847 -0.23438,-0.41388 -0.46013,-0.4174 -0.43736,-0.007 -0.72047,0.43051 -0.7135,0.83169 0.0126,0.7284 0.74293,1.18973 1.41638,1.15947 1.15922,-0.0521 1.88078,-1.21842 1.80708,-2.29735 -0.12132,-1.77615 -1.91544,-2.8662 -3.57794,-2.71926 -2.63512,0.23291 -4.23359,2.90557 -3.9713,5.38413 0.40241,3.8028 4.27507,6.08711 7.86708,5.65212 5.35756,-0.6488 8.54914,-6.12634 7.86546,-11.20569 -0.99477,-7.39057 -8.57948,-11.7619 -15.60917,-10.73124 -3.45301,0.50626 -27.10403,-0.43253 -27.10403,-0.43253"
       id="path4754"
       inkscape:connector-curvature="0"
       sodipodi:nodetypes="ccccccccccccssssssc"
       inkscape:export-xdpi="149.62"
       inkscape:export-ydpi="149.62" />
    <path
       style="fill:none;fill-rule:evenodd;stroke:#ffffff;stroke-width:5;stroke-linecap:round;stroke-linejoin:round;stroke-miterlimit:4;stroke-dasharray:none;stroke-opacity:1;fill-opacity:1"
       d="m 569.09445,87.02702 c 1.5191,3.30406 5.74096,4.0713 8.80285,2.58083 4.8767,-2.37386 5.97076,-8.66701 3.6493,-13.216 -3.56838,-6.99235 -19.23346,-7.03066 -19.23346,-7.03066 l -84.34359,0.46341"
       id="path4740-8"
       inkscape:connector-curvature="0"
       sodipodi:nodetypes="csscc"
       inkscape:export-xdpi="149.62"
       inkscape:export-ydpi="149.62" />
    <path
       style="fill:none;fill-rule:evenodd;stroke:#ffffff;stroke-width:5;stroke-linecap:round;stroke-linejoin:round;stroke-miterlimit:4;stroke-dasharray:none;stroke-opacity:1;fill-opacity:1"
       d="m 553.52248,42.183275 c 1.68174,-1.57608 4.34326,-1.01684 5.78405,0.59019 2.29474,2.55952 3.13642,9.782585 -5.01837,10.629865 -20.92408,-0.64014 -83.03639,-0.0322 -83.03639,-0.0322"
       id="path4743-1"
       inkscape:connector-curvature="0"
       sodipodi:nodetypes="cscc"
       inkscape:export-xdpi="149.62"
       inkscape:export-ydpi="149.62" />
    <path
       style="fill:none;fill-rule:evenodd;stroke:#ffffff;stroke-width:5;stroke-linecap:round;stroke-linejoin:round;stroke-miterlimit:4;stroke-dasharray:none;stroke-opacity:1;fill-opacity:1"
       d="m 589.99856,116.58894 c 0.78329,2.14866 -0.80957,4.33745 -2.82764,5.009 -3.3455,1.11327 -6.68632,-1.36738 -7.6549,-4.52487 -1.53549,-5.00559 2.18065,-9.92643 6.92501,-11.27892 7.24468,-2.06527 14.27745,3.32268 16.11574,10.21479 2.71907,10.19439 -4.57655,22.35915 -14.60802,22.43097 l -130.28838,0.93284"
       id="path4735-4"
       inkscape:connector-curvature="0"
       sodipodi:nodetypes="csssssc"
       inkscape:export-xdpi="149.62"
       inkscape:export-ydpi="149.62" />
    <path
       style="fill:none;fill-rule:evenodd;stroke:#ffffff;stroke-width:5;stroke-linecap:round;stroke-linejoin:round;stroke-miterlimit:4;stroke-dasharray:none;stroke-opacity:1;fill-opacity:1"
       d="m 569.55923,166.42085 c 1.5191,3.30406 5.74096,4.0713 8.80285,2.58083 4.8767,-2.37386 5.97076,-8.66701 3.6493,-13.216 -3.56838,-6.99235 -19.23346,-7.03066 -19.23346,-7.03066 l -84.34359,0.46341"
       id="path4740-2"
       inkscape:connector-curvature="0"
       sodipodi:nodetypes="csscc"
       inkscape:export-xdpi="149.62"
       inkscape:export-ydpi="149.62" />
    <path
       style="fill:none;fill-rule:evenodd;stroke:#ffffff;stroke-width:5;stroke-linecap:round;stroke-linejoin:round;stroke-miterlimit:4;stroke-dasharray:none;stroke-opacity:1;fill-opacity:1"
       d="m 589.99856,203.33404 c 0.78329,2.14866 -0.80957,4.33745 -2.82764,5.009 -3.3455,1.11327 -6.68632,-1.36738 -7.6549,-4.52487 -1.53549,-5.00559 2.18065,-9.92643 6.92501,-11.27892 7.24468,-2.06527 14.27745,3.32268 16.11574,10.21479 2.71907,10.19439 -4.57655,22.35915 -14.60802,22.43097 l -130.28838,0.93284"
       id="path4735-3"
       inkscape:connector-curvature="0"
       sodipodi:nodetypes="csssssc"
       inkscape:export-xdpi="149.62"
       inkscape:export-ydpi="149.62" />
    <path
       style="fill:none;fill-rule:evenodd;stroke:#ffffff;stroke-width:5;stroke-linecap:round;stroke-linejoin:round;stroke-miterlimit:4;stroke-dasharray:none;stroke-opacity:1;fill-opacity:1"
       d="m 569.55923,253.16595 c 1.5191,3.30406 5.74096,4.0713 8.80285,2.58083 4.8767,-2.37386 5.97076,-8.66701 3.6493,-13.216 -3.56838,-6.99235 -19.23346,-7.03066 -19.23346,-7.03066 l -84.34359,0.46341"
       id="path4740-80"
       inkscape:connector-curvature="0"
       sodipodi:nodetypes="csscc"
       inkscape:export-xdpi="149.62"
       inkscape:export-ydpi="149.62" />
    <path
       style="fill:none;fill-rule:evenodd;stroke:#ffffff;stroke-width:5;stroke-linecap:round;stroke-linejoin:round;stroke-miterlimit:4;stroke-dasharray:none;stroke-opacity:1;fill-opacity:1"
       d="m 553.98726,206.3222 c 1.68174,-1.57608 4.34326,-1.01684 5.78405,0.59019 2.29474,2.55952 3.13642,9.78259 -5.01837,10.62987 -20.92408,-0.64014 -83.03639,-0.0322 -83.03639,-0.0322"
       id="path4743-2"
       inkscape:connector-curvature="0"
       sodipodi:nodetypes="cscc"
       inkscape:export-xdpi="149.62"
       inkscape:export-ydpi="149.62" />
    <path
       style="fill:none;fill-rule:evenodd;stroke:#ffffff;stroke-width:7;stroke-linecap:round;stroke-linejoin:round;stroke-miterlimit:4;stroke-dasharray:none;stroke-opacity:1;fill-opacity:1"
       d="m 553.62249,393.38032 c 1.68174,-1.57608 4.34326,-1.01684 5.78405,0.59019 2.29474,2.55952 3.13642,9.78259 -5.01837,10.62987 -20.92408,-0.64014 -83.03639,-0.0322 -83.03639,-0.0322"
       id="path4743-4"
       inkscape:connector-curvature="0"
       sodipodi:nodetypes="cscc"
       inkscape:export-xdpi="149.62"
       inkscape:export-ydpi="149.62" />
    <path
       style="fill:none;fill-rule:evenodd;stroke:#ffffff;stroke-width:7;stroke-linecap:round;stroke-linejoin:round;stroke-miterlimit:4;stroke-dasharray:none;stroke-opacity:1;fill-opacity:1"
       d="m 520.10324,481.67897 c 1.25539,1.42128 0.68882,3.59321 -0.6655,4.72279 -2.24516,1.87259 -5.57521,0.96966 -7.27917,-1.1742 -2.7013,-3.39867 -1.32327,-8.32252 1.9292,-10.80344 4.96654,-3.78839 12.02691,-1.75957 15.5333,3.00359 5.18645,7.04535 2.53576,17.27273 -4.48192,21.73853 -3.92857,2.5 -68.84937,-0.0254 -68.84937,-0.0254"
       id="path4732-3"
       inkscape:connector-curvature="0"
       sodipodi:nodetypes="csssssc"
       inkscape:export-xdpi="149.62"
       inkscape:export-ydpi="149.62" />
    <path
       style="fill:none;fill-rule:evenodd;stroke:#ffffff;stroke-width:7;stroke-linecap:round;stroke-linejoin:round;stroke-miterlimit:4;stroke-dasharray:none;stroke-opacity:1;fill-opacity:1"
       d="m 538.661,443.32459 c 1.5191,3.30406 5.74096,4.0713 8.80286,2.58083 4.8767,-2.37386 5.97076,-8.66701 3.6493,-13.216 -3.56838,-6.99235 -19.23347,-7.03066 -19.23347,-7.03066 l -52.34359,0.46341"
       id="path4740-26"
       inkscape:connector-curvature="0"
       sodipodi:nodetypes="csscc"
       inkscape:export-xdpi="149.62"
       inkscape:export-ydpi="149.62" />
    <path
       style="fill:none;fill-rule:evenodd;stroke:#ffffff;stroke-width:7;stroke-linecap:round;stroke-linejoin:round;stroke-miterlimit:4;stroke-dasharray:none;stroke-opacity:1;fill-opacity:1"
       d="m 585.24685,496.73574 0,0 c 3e-5,3e-5 -4e-5,7e-5 -6e-5,8e-5 -3.2e-4,1.3e-4 -5.7e-4,-3.5e-4 -6.2e-4,-5.9e-4 -3.3e-4,-0.002 0.002,-0.003 0.003,-0.003 0.005,-3.3e-4 0.008,0.006 0.008,0.0104 -6.2e-4,0.0139 -0.017,0.02 -0.0289,0.0185 -0.0315,-0.004 -0.0441,-0.0409 -0.0389,-0.0682 0.0121,-0.0637 0.0869,-0.0877 0.14328,-0.074 0.11845,0.0287 0.16083,0.1685 0.13051,0.27483 -0.0588,0.206 -0.30387,0.27678 -0.49096,0.21669 -0.33968,-0.10909 -0.45251,-0.51679 -0.34295,-0.82822 0.18861,-0.53607 0.83758,-0.70913 1.33295,-0.52177 0.81547,0.30844 1.07238,1.30391 0.76802,2.06248 -0.48241,1.20235 -1.96176,1.57317 -3.08655,1.09916 -1.72575,-0.72726 -2.24813,-2.8663 -1.53545,-4.48863 1.06297,-2.41972 4.08288,-3.14012 6.36724,-2.10019 3.3238,1.51311 4.29881,5.68795 2.81999,8.83749 -2.10513,4.48342 -7.77007,5.78119 -12.03239,3.72488 -5.95041,-2.8707 -7.65218,-10.43086 -4.84871,-16.10434 3.8461,-7.78344 13.78607,-9.98519 21.22665,-6.22923 10.04853,5.07243 12.86269,17.96652 7.90846,27.59496 -6.59613,12.81944 -17.74108,9.6541 -35.42881,9.93283 -10.0145,0.15781 -105.5529,0.25131 -105.5529,0.25131"
       id="path4748-1"
       inkscape:connector-curvature="0"
       sodipodi:nodetypes="cccccccccccccssssssssssc"
       inkscape:export-xdpi="149.62"
       inkscape:export-ydpi="149.62" />
    <path
       style="fill:none;fill-opacity:1;fill-rule:evenodd;stroke:#ffffff;stroke-width:6;stroke-linecap:round;stroke-linejoin:round;stroke-miterlimit:4;stroke-dasharray:none;stroke-opacity:1"
       d="m 573.52696,544.97231 0,-10e-6 c -5e-5,-6e-5 -1.7e-4,5e-5 -2e-4,8e-5 -4.5e-4,5.5e-4 3.5e-4,10e-4 7.7e-4,0.002 0.003,0.002 0.006,-0.002 0.007,-0.004 0.004,-0.0101 -0.007,-0.0189 -0.0157,-0.0211 -0.0276,-0.007 -0.0492,0.0215 -0.0532,0.0454 -0.0109,0.0639 0.0538,0.11043 0.11037,0.11642 0.13174,0.0139 0.22276,-0.11803 0.22936,-0.23634 0.0139,-0.24847 -0.23438,-0.41388 -0.46013,-0.4174 -0.43736,-0.007 -0.72047,0.43051 -0.7135,0.83169 0.0126,0.7284 0.74293,1.18973 1.41638,1.15947 1.15922,-0.0521 1.88078,-1.21842 1.80708,-2.29735 -0.12132,-1.77615 -1.91544,-2.8662 -3.57794,-2.71926 -2.63512,0.23291 -4.23359,2.90557 -3.9713,5.38413 0.40241,3.8028 4.27507,6.08711 7.86708,5.65212 5.35756,-0.6488 8.54914,-6.12634 7.86546,-11.20569 -0.99477,-7.39057 -8.57948,-11.7619 -15.60917,-10.73124 -3.45301,0.50626 -27.10404,-0.43253 -27.10404,-0.43253"
       id="path4754-3"
       inkscape:connector-curvature="0"
       sodipodi:nodetypes="ccccccccccccssssssc"
       inkscape:export-xdpi="149.62"
       inkscape:export-ydpi="149.62" />
    <path
       style="fill:none;fill-rule:evenodd;stroke:#ffffff;stroke-width:7;stroke-linecap:round;stroke-linejoin:round;stroke-miterlimit:4;stroke-dasharray:none;stroke-opacity:1;fill-opacity:1"
       d="m 554.43754,498.69277 c 1.68174,-1.57608 4.34326,-1.01684 5.78406,0.59019 2.29474,2.55952 3.13642,9.78259 -5.01838,10.62987 -20.92408,-0.64014 -83.03639,-0.0322 -83.03639,-0.0322"
       id="path4743-4-8"
       inkscape:connector-curvature="0"
       sodipodi:nodetypes="cscc"
       inkscape:export-xdpi="149.62"
       inkscape:export-ydpi="149.62" />
    <path
       style="fill:none;fill-rule:evenodd;stroke:#ffffff;stroke-width:7;stroke-linecap:round;stroke-linejoin:round;stroke-miterlimit:4;stroke-dasharray:none;stroke-opacity:1;fill-opacity:1"
       d="m 539.47605,548.63704 c 1.5191,3.30406 5.74096,4.0713 8.80286,2.58083 4.8767,-2.37386 5.97076,-8.66701 3.6493,-13.216 -3.56838,-6.99235 -19.23347,-7.03066 -19.23347,-7.03066 l -52.34359,0.46341"
       id="path4740-26-3"
       inkscape:connector-curvature="0"
       sodipodi:nodetypes="csscc"
       inkscape:export-xdpi="149.62"
       inkscape:export-ydpi="149.62" />
  </g>
</svg>
